<svg xmlns="http://www.w3.org/2000/svg" width="72.377" height="72.375" viewBox="0 0 72.377 72.375">
  <path id="cloud-showers-heavy-solid" d="M25.985,52.316a2.244,2.244,0,0,0-3.082.848L13.857,69a2.25,2.25,0,0,0,.848,3.082,2.255,2.255,0,0,0,3.082-.848L26.833,55.4A2.256,2.256,0,0,0,25.985,52.316Zm13.57,0a2.244,2.244,0,0,0-3.082.848L27.427,69a2.25,2.25,0,0,0,.848,3.082,2.255,2.255,0,0,0,3.082-.848L40.4,55.4A2.256,2.256,0,0,0,39.555,52.316Zm-27.141,0a2.244,2.244,0,0,0-3.082.848L.286,69a2.25,2.25,0,0,0,.848,3.082,2.255,2.255,0,0,0,3.082-.848L13.263,55.4A2.256,2.256,0,0,0,12.415,52.316Zm54.281,0a2.244,2.244,0,0,0-3.082.848L54.568,69a2.25,2.25,0,0,0,.848,3.082A2.255,2.255,0,0,0,58.5,71.23L67.544,55.4A2.256,2.256,0,0,0,66.7,52.316Zm-13.57,0a2.244,2.244,0,0,0-3.082.848L41,69a2.25,2.25,0,0,0,.848,3.082,2.255,2.255,0,0,0,3.082-.848L53.974,55.4A2.256,2.256,0,0,0,53.126,52.316Zm5.668-34.223c-.085,0-.155.028-.226.028a11.04,11.04,0,0,0,.226-2.29A11.263,11.263,0,0,0,38.863,8.595,15.778,15.778,0,0,0,9.036,15.832a16.076,16.076,0,0,0,.3,3A13.536,13.536,0,0,0,13.56,45.234H58.794a13.57,13.57,0,1,0,0-27.141Z" transform="translate(0.012)" fill="#fff"/>
</svg>
